<svg width="24" height="24" viewBox="0 0 24 24" fill="none" xmlns="http://www.w3.org/2000/svg">
<circle cx="12" cy="12" r="11" fill="#58D08B" stroke="#58D08B" stroke-width="2"/>
<path d="M10.8122 6.906H13.2062L16.5662 17H14.2142L13.5562 14.914H10.0842L9.45419 17H7.42419L10.8122 6.906ZM10.5602 13.374H13.0802L12.5902 11.778C12.4875 11.442 12.3895 11.078 12.2962 10.686C12.2122 10.2847 12.1375 9.90667 12.0722 9.552C11.9975 9.15067 11.9275 8.74467 11.8622 8.334H11.7922C11.7269 8.73533 11.6522 9.14133 11.5682 9.552C11.4935 9.90667 11.4142 10.2847 11.3302 10.686C11.2462 11.0873 11.1529 11.4513 11.0502 11.778L10.5602 13.374Z" fill="black"/>
</svg>
