<svg width="24" height="24" viewBox="0 0 24 24" fill="none" xmlns="http://www.w3.org/2000/svg">
<circle cx="12" cy="12" r="11" fill="#58D08B" stroke="#58D08B" stroke-width="2"/>
<path d="M8.99563 6.906H12.8736C13.9936 6.906 14.801 7.12533 15.2956 7.564C15.7996 7.99333 16.0516 8.628 16.0516 9.468C16.0516 10.0187 15.9116 10.4853 15.6316 10.868C15.361 11.2413 14.8616 11.5167 14.1336 11.694V11.75C14.9083 11.8527 15.487 12.0907 15.8696 12.464C16.2616 12.828 16.4576 13.3833 16.4576 14.13C16.4576 14.5407 16.3923 14.9233 16.2616 15.278C16.1403 15.6233 15.9443 15.9267 15.6736 16.188C15.403 16.44 15.053 16.6407 14.6236 16.79C14.2036 16.93 13.6903 17 13.0836 17H8.99563V6.906ZM12.7196 15.348C13.2143 15.348 13.5736 15.236 13.7976 15.012C14.031 14.788 14.1476 14.4287 14.1476 13.934C14.1476 13.4487 14.031 13.1033 13.7976 12.898C13.5643 12.6833 13.1816 12.576 12.6496 12.576H11.2216V15.348H12.7196ZM12.4956 11.036C12.9343 11.036 13.2703 10.952 13.5036 10.784C13.7463 10.616 13.8676 10.28 13.8676 9.776C13.8676 9.30933 13.765 8.992 13.5596 8.824C13.3543 8.656 13.0183 8.572 12.5516 8.572H11.2216V11.036H12.4956Z" fill="black"/>
</svg>
