<svg width="24" height="24" viewBox="0 0 24 24" fill="none" xmlns="http://www.w3.org/2000/svg">
<circle cx="12" cy="12" r="11" fill="#58D08B" stroke="#58D08B" stroke-width="2"/>
<path d="M13.4313 17.168C12.7406 17.168 12.1199 17.0793 11.5693 16.902C11.0186 16.7153 10.5519 16.4307 10.1693 16.048C9.78661 15.6653 9.49261 15.18 9.28727 14.592C9.08194 13.9947 8.97927 13.2853 8.97927 12.464V11.47C8.97927 10.5927 9.09594 9.85067 9.32927 9.244C9.57194 8.63733 9.90327 8.152 10.3233 7.788C10.7433 7.41467 11.2333 7.14867 11.7933 6.99C12.3533 6.822 12.9553 6.738 13.5993 6.738C14.1593 6.738 14.6353 6.78 15.0273 6.864C15.4286 6.93867 15.7693 7.05533 16.0493 7.214V9.02C15.7226 8.89867 15.3959 8.80067 15.0693 8.726C14.7519 8.65133 14.3739 8.614 13.9353 8.614C13.5246 8.614 13.1606 8.66067 12.8433 8.754C12.5353 8.838 12.2693 8.98267 12.0453 9.188C11.8306 9.39333 11.6673 9.664 11.5553 10C11.4433 10.336 11.3873 10.7513 11.3873 11.246V12.366C11.3873 12.8607 11.4293 13.29 11.5133 13.654C11.5973 14.018 11.7373 14.3213 11.9333 14.564C12.1293 14.8067 12.3859 14.9887 12.7033 15.11C13.0299 15.2313 13.4313 15.292 13.9073 15.292C14.4299 15.292 14.8639 15.2407 15.2093 15.138C15.5639 15.026 15.8719 14.9093 16.1333 14.788V16.594C15.8066 16.7713 15.4286 16.9113 14.9993 17.014C14.5699 17.1167 14.0473 17.168 13.4313 17.168Z" fill="black"/>
</svg>
