<svg width="24" height="24" viewBox="0 0 24 24" fill="none" xmlns="http://www.w3.org/2000/svg">
<circle cx="12" cy="12" r="11" fill="#58D08B" stroke="#58D08B" stroke-width="2"/>
<path d="M8.11281 6.906H11.5988C12.3548 6.906 13.0221 6.99 13.6008 7.158C14.1795 7.31667 14.6695 7.57333 15.0708 7.928C15.4721 8.28267 15.7755 8.74467 15.9808 9.314C16.1861 9.88333 16.2888 10.5787 16.2888 11.4V12.324C16.2888 13.9387 15.8921 15.124 15.0988 15.88C14.3055 16.6267 13.1481 17 11.6268 17H8.11281V6.906ZM11.5848 15.194C11.9861 15.194 12.3315 15.152 12.6208 15.068C12.9195 14.984 13.1621 14.8393 13.3488 14.634C13.5448 14.4193 13.6848 14.1393 13.7688 13.794C13.8621 13.4487 13.9088 13.01 13.9088 12.478V11.372C13.9088 10.8307 13.8528 10.3873 13.7408 10.042C13.6381 9.69667 13.4841 9.426 13.2788 9.23C13.0828 9.034 12.8355 8.89867 12.5368 8.824C12.2381 8.74933 11.8928 8.712 11.5008 8.712H10.3808V15.194H11.5848Z" fill="black"/>
</svg>
