<svg width="24" height="24" viewBox="0 0 24 24" fill="none" xmlns="http://www.w3.org/2000/svg">
<circle cx="12" cy="12" r="11" fill="#58D08B" stroke="#58D08B" stroke-width="2"/>
<path d="M12.6032 17.154C11.8565 17.154 11.1892 17.0747 10.6012 16.916C10.0225 16.748 9.52787 16.482 9.1172 16.118C8.70654 15.7447 8.39387 15.2593 8.1792 14.662C7.96454 14.0647 7.8572 13.332 7.8572 12.464V11.498C7.8572 10.574 7.9832 9.80867 8.2352 9.202C8.49654 8.586 8.84654 8.096 9.2852 7.732C9.72387 7.368 10.2325 7.11133 10.8112 6.962C11.3899 6.81267 12.0012 6.738 12.6452 6.738C13.3172 6.738 13.8865 6.794 14.3532 6.906C14.8199 7.00867 15.1979 7.13 15.4872 7.27V9.118C15.2072 9.01533 14.8619 8.91267 14.4512 8.81C14.0405 8.70733 13.5132 8.656 12.8692 8.656C12.3372 8.656 11.8985 8.72133 11.5532 8.852C11.2172 8.98267 10.9512 9.16933 10.7552 9.412C10.5592 9.64533 10.4239 9.93 10.3492 10.266C10.2745 10.602 10.2372 10.9753 10.2372 11.386V12.492C10.2372 12.94 10.2652 13.346 10.3212 13.71C10.3772 14.074 10.4892 14.3867 10.6572 14.648C10.8252 14.9093 11.0585 15.11 11.3572 15.25C11.6652 15.39 12.0665 15.46 12.5612 15.46C12.7945 15.46 13.0232 15.4413 13.2472 15.404C13.4712 15.3573 13.6532 15.3107 13.7932 15.264V13.318H12.2672V11.624H15.9352V16.524C15.5619 16.7107 15.0812 16.8647 14.4932 16.986C13.9052 17.098 13.2752 17.154 12.6032 17.154Z" fill="black"/>
</svg>
